<svg width="13" height="9" viewBox="0 0 13 9" fill="none" xmlns="http://www.w3.org/2000/svg">
<path d="M0.711426 4.37751C0.711426 4.14172 0.909715 3.94685 1.16698 3.91601L1.2385 3.91175L11.78 3.91175C12.0711 3.91175 12.3071 4.12028 12.3071 4.37751C12.3071 4.6133 12.1088 4.80817 11.8515 4.83901L11.78 4.84326L1.2385 4.84326C0.947406 4.84326 0.711426 4.63474 0.711426 4.37751Z" fill="#3D3D3D"/>
<path d="M7.15665 0.966403C6.95037 0.784908 6.94965 0.49001 7.15504 0.30773C7.34176 0.142022 7.63454 0.126433 7.84121 0.261329L7.90044 0.306312L12.1522 4.04724C12.3403 4.21273 12.3574 4.47238 12.2035 4.655L12.1522 4.70731L7.90047 8.44886C7.69421 8.63037 7.36048 8.62976 7.15507 8.4475C6.96834 8.2818 6.95193 8.02302 7.10546 7.84097L7.15661 7.78882L11.0331 4.3771L7.15665 0.966403Z" fill="#3D3D3D"/>
</svg>
