<svg width="32" height="32" viewBox="0 0 32 32" fill="none" xmlns="http://www.w3.org/2000/svg">
<path d="M32 32H0V0H32V32ZM1 31H31V1H1V31ZM16 8C18.1999 8 18.4667 7.99975 19.2666 8.06641C22.1999 8.19974 23.8003 9.80006 23.9336 12.7334C24.0003 13.5333 24 13.8001 24 16C24 18.1999 24.0003 18.4667 23.9336 19.2666C23.8003 22.1999 22.1999 23.8003 19.2666 23.9336C18.4667 24.0003 18.1999 24 16 24C13.8001 24 13.5333 24.0003 12.7334 23.9336C9.80006 23.8003 8.19974 22.1999 8.06641 19.2666C7.99975 18.4667 8 18.1999 8 16C8 13.8001 7.99975 13.5333 8.06641 12.7334C8.19974 9.80006 9.80006 8.19974 12.7334 8.06641C13.5333 7.99975 13.8001 8 16 8ZM16 9.4668C13.8667 9.4668 13.5998 9.46654 12.7998 9.5332C10.6667 9.59993 9.59993 10.6667 9.5332 12.7998C9.46654 13.5998 9.4668 13.8667 9.4668 16C9.4668 18.1333 9.46654 18.3335 9.5332 19.2002C9.59992 21.3333 10.6 22.4001 12.7998 22.4668C13.5998 22.5335 13.8667 22.5332 16 22.5332C18.1999 22.5332 18.4 22.5335 19.2666 22.4668C21.3999 22.4001 22.4665 21.3334 22.5332 19.2002C22.5999 18.4002 22.5996 18.1333 22.5996 16C22.5996 13.8667 22.5999 13.6665 22.5332 12.7998C22.4665 10.6666 21.4665 9.59987 19.2666 9.5332C18.4 9.46654 18.1333 9.4668 16 9.4668ZM16 11.8662C18.2667 11.8662 20.1338 13.7333 20.1338 16C20.1338 18.2667 18.2667 20.1338 16 20.1338C13.7333 20.1338 11.8662 18.2667 11.8662 16C11.8662 13.7333 13.7333 11.8662 16 11.8662ZM16 13.333C14.5333 13.333 13.333 14.5333 13.333 16C13.333 17.4667 14.5333 18.667 16 18.667C17.4667 18.667 18.667 17.4667 18.667 16C18.667 14.5333 17.4667 13.333 16 13.333ZM20.2666 10.7998C20.7999 10.7998 21.2002 11.2001 21.2002 11.7334C21.2002 12.2667 20.7999 12.667 20.2666 12.667C19.7333 12.667 19.333 12.2667 19.333 11.7334C19.333 11.2001 19.7333 10.7998 20.2666 10.7998Z" fill="#46A358" fill-opacity="0.6"/>
</svg>
