<svg width="32" height="32" viewBox="0 0 32 32" fill="none" xmlns="http://www.w3.org/2000/svg">
<path d="M32 32H0V0H32V32ZM1 31H31V1H1V31ZM11.333 12.667V23.333H8V12.667H11.333ZM16.667 14.1338C18.067 11.5339 23.9997 11.3333 24 16.5996V23.333H20.667V17.7334C20.667 14.3334 16.667 14.6001 16.667 17.7334V23.333H13.333V12.667H16.667V14.1338ZM9.66699 8C10.6002 8.00017 11.333 8.73377 11.333 9.66699C11.3328 10.6001 10.6001 11.3328 9.66699 11.333C8.73377 11.333 8.00017 10.6002 8 9.66699C8 8.73366 8.73366 8 9.66699 8Z" fill="#46A358" fill-opacity="0.6"/>
</svg>
