<svg width="32" height="32" viewBox="0 0 32 32" fill="none" xmlns="http://www.w3.org/2000/svg">
<path d="M32 32H0V0H32V32ZM1 31H31V1H1V31ZM19.0781 9C20.0219 9.00007 20.8754 9.39915 21.4746 10.0371C22.222 9.88969 22.9243 9.61631 23.5586 9.24023C23.3131 10.0067 22.7929 10.6503 22.1152 11.0566C22.7792 10.9773 23.4119 10.8003 24 10.5391C23.5605 11.1971 23.0032 11.7759 22.3623 12.2393C22.3688 12.3799 22.3721 12.5211 22.3721 12.6631C22.3721 17.0006 19.07 22.0037 13.0322 22.0039C11.1781 22.0039 9.4527 21.4602 8 20.5293C8.25694 20.5597 8.51844 20.5742 8.7832 20.5742C10.321 20.5742 11.7367 20.0495 12.8604 19.1689C11.4235 19.1422 10.2109 18.1936 9.79297 16.8896C9.99286 16.9277 10.1988 16.9482 10.4102 16.9482C10.7095 16.9482 10.9998 16.9081 11.2754 16.833C9.77385 16.5321 8.6428 15.2048 8.64258 13.6152C8.64258 13.601 8.64187 13.5868 8.64258 13.5732C9.08497 13.8193 9.59141 13.9668 10.1299 13.9834C9.24857 13.3951 8.66895 12.3898 8.66895 11.251C8.66896 10.6501 8.83117 10.0864 9.11328 9.60156C10.7322 11.5876 13.1519 12.8942 15.8799 13.0312C15.8238 12.7909 15.7949 12.5399 15.7949 12.2822C15.795 10.4701 17.2651 9 19.0781 9Z" fill="#46A358" fill-opacity="0.6"/>
</svg>
