<svg width="32" height="32" viewBox="0 0 32 32" fill="none" xmlns="http://www.w3.org/2000/svg">
<path d="M27 0C29.7614 0 32 2.23858 32 5V27C32 29.7614 29.7614 32 27 32H5C2.23858 32 0 29.7614 0 27V5C0 2.23858 2.23858 0 5 0H27ZM5 1C2.79086 1 1 2.79086 1 5V27C1 29.14 2.68056 30.8879 4.79395 30.9951L5 31H27C29.2091 31 31 29.2091 31 27V5C31 2.79086 29.2091 1 27 1H5ZM10.4219 9.1748C13.2218 8.94148 19.4443 8.94148 22.2441 9.1748C25.2771 9.40823 25.666 11.1977 25.666 16.0195C25.666 20.8411 25.277 22.7076 22.2441 22.8633C19.4443 23.0188 13.2218 23.0188 10.4219 22.8633C7.38894 22.6299 7.00002 20.8412 7 16.0195C7 11.1976 7.38884 9.40819 10.4219 9.1748ZM21.3418 13.3564C18.7486 13.1953 13.9174 13.1953 11.3242 13.3564L11.3232 13.3643C11.2608 13.997 11.2363 14.8418 11.2363 16.0195C11.2363 17.1916 11.2614 18.0333 11.3232 18.665C13.9717 18.7703 18.6959 18.7703 21.3438 18.665C21.4049 18.027 21.4297 17.1826 21.4297 16.0195C21.4297 14.8418 21.4043 13.997 21.3418 13.3643V13.3564ZM14 16.0195C14 14.5902 15.5038 13.6606 16.7822 14.2998C18.1992 15.0084 18.1993 17.0307 16.7822 17.7393C15.504 18.3782 14.0003 17.4485 14 16.0195Z" fill="#46A358" fill-opacity="0.6"/>
</svg>
